<?xml version="1.0" encoding="UTF-8"?>
<svg xmlns="http://www.w3.org/2000/svg" xmlns:xlink="http://www.w3.org/1999/xlink" width="75px" height="50px" viewBox="0 0 74 50" version="1.1">
<g id="surface1">
<path style=" stroke:none;fill-rule:evenodd;fill:rgb(0%,0%,0%);fill-opacity:1;" d="M 24.476562 48.304688 C 13.726562 45.738281 6.050781 40.191406 2.714844 33.691406 C 1.144531 30.753906 0.214844 27.546875 0.0078125 24.210938 C 0.00390625 24.160156 0.00390625 24.113281 0.00390625 24.066406 C -0.0585938 20.339844 0.933594 16.820312 3.96875 12.84375 C 6.753906 9.175781 11.015625 6.035156 16.527344 3.625 C 22.355469 1.0625 29.261719 -0.203125 36.707031 0.0273438 C 38.21875 0.0742188 39.710938 0.179688 41.179688 0.34375 C 42.773438 0.507812 44.335938 0.738281 45.859375 1.03125 C 48.824219 1.523438 51.644531 2.265625 54.273438 3.226562 C 56.863281 4.136719 59.238281 5.226562 61.570312 6.632812 C 63.636719 7.875 65.246094 9.097656 66.824219 10.578125 C 67.617188 11.347656 68.351562 12.152344 69.027344 12.980469 C 69.558594 13.660156 70.054688 14.351562 70.507812 15.054688 C 71.015625 15.871094 71.460938 16.65625 71.875 17.542969 C 73.238281 20.453125 73.953125 23.753906 74.027344 26.542969 C 74.03125 32.078125 71.238281 37.050781 66.570312 40.976562 C 63.128906 43.992188 59.007812 46.246094 53.671875 47.929688 C 49.699219 49.183594 45.554688 49.859375 41.441406 49.980469 C 40.078125 50.050781 39.023438 50 37.640625 49.988281 C 32.96875 49.835938 28.542969 49.253906 24.476562 48.304688 Z M 47.617188 41.289062 C 48.332031 40.730469 48.824219 40.21875 49.574219 39.328125 C 50.878906 37.78125 51.742188 36.238281 52.28125 34.203125 C 52.339844 34.003906 52.394531 33.804688 52.445312 33.605469 C 52.5625 33.132812 52.648438 32.660156 52.703125 32.1875 C 52.8125 30.640625 52.730469 28.820312 52.269531 27.066406 C 52.152344 26.554688 52.042969 26.082031 51.933594 25.625 C 51.460938 23.519531 51.007812 21.90625 50.238281 19.722656 C 50.195312 19.601562 50.136719 19.414062 50.089844 19.292969 C 48.464844 15.039062 46.785156 12.132812 44.40625 9.972656 C 41.167969 6.890625 36.398438 5.171875 31.304688 6.742188 C 29.265625 7.371094 27.566406 8.4375 26.4375 9.59375 C 25.78125 10.253906 25.144531 11.074219 24.648438 11.875 C 23.386719 13.914062 22.78125 15.460938 22.578125 17.632812 C 22.535156 18.398438 22.484375 19.332031 22.578125 20.222656 C 22.734375 21.222656 22.832031 22.0625 23.03125 23.027344 C 23.597656 25.9375 24.398438 28.59375 25.035156 30.589844 C 25.039062 30.609375 25.046875 30.632812 25.054688 30.65625 C 25.359375 31.679688 25.722656 32.65625 26.144531 33.578125 C 26.488281 34.375 26.914062 35.285156 27.328125 36.003906 C 27.605469 36.503906 27.898438 36.996094 28.199219 37.460938 C 28.714844 38.261719 29.207031 38.816406 29.765625 39.457031 C 30.652344 40.433594 31.578125 41.226562 32.539062 41.851562 C 34.046875 42.777344 35.605469 43.335938 37.167969 43.605469 C 40.035156 44.203125 43.238281 43.695312 44.925781 42.886719 C 46.042969 42.355469 46.644531 42.046875 47.617188 41.289062 Z M 47.617188 41.289062 "/>
</g>
</svg>
